ffmpeg started on 2025-06-06 at 16:48:53
Report written to "D:\Convert\FFMetrics\reports\psnr_report-6.txt"
Log level: 32
Command line:
ffmpeg -hide_banner -nostdin -i "G:\\\xc0\xed\xe8\xec\xe5\\\xce\xed\xe3\xee\xe8\xed\xe3\xe8\\!_36_\xce\xf1\xe5\xed\xfc_2024\\DreamCast\\\xcf\xeb\xee\xf5\xe0\xff \xef\xee\xe5\xe7\xe4\xea\xe0\\[DC] Acro Trip - 05_Telegram_HEVC.mkv" -i "G:\\\xc0\xed\xe8\xec\xe5\\\xce\xed\xe3\xee\xe8\xed\xe3\xe8\\!_36_\xce\xf1\xe5\xed\xfc_2024\\DreamCast\\\xcf\xeb\xee\xf5\xe0\xff \xef\xee\xe5\xe7\xe4\xea\xe0\\[DC] Acro Trip - 05_Telegram.mp4" -lavfi "[0:v]settb=AVTB,setpts=PTS-STARTPTS,format=pix_fmts=yuv420p10,fps=24000/1001,scale=1920:1080:flags=bicubic[main];[1:v]settb=AVTB,setpts=PTS-STARTPTS,format=pix_fmts=yuv420p,fps=24000/1001,scale=1920:1080:flags=bicubic[ref];[main][ref]psnr=eof_action=endall:stats_file='D\\:/Convert/FFMetrics/logs/psnr_logfile-6.txt'" -f null -
Input #0, matroska,webm, from 'G:\Аниме\Онгоинги\!_36_Осень_2024\DreamCast\Плохая поездка\[DC] Acro Trip - 05_Telegram_HEVC.mkv':
  Metadata:
    COMPATIBLE_BRANDS: isomiso2avc1mp41
    MAJOR_BRAND     : isom
    MINOR_VERSION   : 512
    ENCODER         : Lavf61.7.100
  Duration: 00:23:46.69, start: -0.021000, bitrate: 1452 kb/s
  Stream #0:0: Video: hevc (Main 10), yuv420p10le(tv, bt709, progressive), 1920x1080 [SAR 1:1 DAR 16:9], 23.98 fps, 23.98 tbr, 1k tbn (default)
      Metadata:
        HANDLER_NAME    : VideoHandler
        VENDOR_ID       : [0][0][0][0]
        ENCODER         : Lavc61.19.100 libx265
        BPS             : 1255303
        DURATION        : 00:23:46.591708333
        NUMBER_OF_FRAMES: 34204
        NUMBER_OF_BYTES : 223850533
        _STATISTICS_WRITING_APP: mkvpropedit v66.0.0 ('Josie') 64-bit
        _STATISTICS_WRITING_DATE_UTC: 2025-06-02 12:18:02
        _STATISTICS_TAGS: BPS DURATION NUMBER_OF_FRAMES NUMBER_OF_BYTES
  Stream #0:1: Audio: aac (LC), 48000 Hz, stereo, fltp (default)
      Metadata:
        HANDLER_NAME    : SoundHandler
        VENDOR_ID       : [0][0][0][0]
        ENCODER         : Lavc61.19.100 aac
        BPS             : 193384
        DURATION        : 00:23:46.688000000
        NUMBER_OF_FRAMES: 66877
        NUMBER_OF_BYTES : 34487502
        _STATISTICS_WRITING_APP: mkvpropedit v66.0.0 ('Josie') 64-bit
        _STATISTICS_WRITING_DATE_UTC: 2025-06-02 12:18:02
        _STATISTICS_TAGS: BPS DURATION NUMBER_OF_FRAMES NUMBER_OF_BYTES
Input #1, mov,mp4,m4a,3gp,3g2,mj2, from 'G:\Аниме\Онгоинги\!_36_Осень_2024\DreamCast\Плохая поездка\[DC] Acro Trip - 05_Telegram.mp4':
  Metadata:
    major_brand     : isom
    minor_version   : 512
    compatible_brands: isomiso2avc1mp41
    encoder         : Lavf61.1.100
  Duration: 00:23:46.66, start: 0.000000, bitrate: 3870 kb/s
  Stream #1:0[0x1](und): Video: h264 (High) (avc1 / 0x31637661), yuv420p(tv, bt709, progressive), 1920x1080 [SAR 1:1 DAR 16:9], 3722 kb/s, 23.98 fps, 23.98 tbr, 24k tbn (default)
      Metadata:
        handler_name    : VideoHandler
        vendor_id       : [0][0][0][0]
        encoder         : Lavc61.3.100 h264_qsv
  Stream #1:1[0x2](und): Audio: aac (HE-AACv2) (mp4a / 0x6134706D), 48000 Hz, stereo, fltp, 144 kb/s (default)
      Metadata:
        handler_name    : SoundHandler
        vendor_id       : [0][0][0][0]
Stream mapping:
  Stream #0:0 (hevc) -> settb:default
  Stream #1:0 (h264) -> settb:default
  psnr:default -> Stream #0:0 (wrapped_avframe)
  Stream #0:1 -> #0:1 (aac (native) -> pcm_s16le (native))
Output #0, null, to 'pipe:':
  Metadata:
    COMPATIBLE_BRANDS: isomiso2avc1mp41
    MAJOR_BRAND     : isom
    MINOR_VERSION   : 512
    encoder         : Lavf61.7.100
  Stream #0:0: Video: wrapped_avframe, yuv420p10le(tv, bt709, progressive), 1920x1080 [SAR 1:1 DAR 16:9], q=2-31, 200 kb/s, 23.98 fps, 23.98 tbn
      Metadata:
        encoder         : Lavc61.19.100 wrapped_avframe
  Stream #0:1: Audio: pcm_s16le, 48000 Hz, stereo, s16, 1536 kb/s (default)
      Metadata:
        HANDLER_NAME    : SoundHandler
        VENDOR_ID       : [0][0][0][0]
        _STATISTICS_TAGS: BPS DURATION NUMBER_OF_FRAMES NUMBER_OF_BYTES
        BPS             : 193384
        DURATION        : 00:23:46.688000000
        NUMBER_OF_FRAMES: 66877
        NUMBER_OF_BYTES : 34487502
        _STATISTICS_WRITING_APP: mkvpropedit v66.0.0 ('Josie') 64-bit
        _STATISTICS_WRITING_DATE_UTC: 2025-06-02 12:18:02
        encoder         : Lavc61.19.100 pcm_s16le
frame=  169 fps=0.0 q=-0.0 size=N/A time=00:00:07.04 bitrate=N/A speed=13.7x    frame=  338 fps=325 q=-0.0 size=N/A time=00:00:14.09 bitrate=N/A speed=13.6x    frame=  525 fps=338 q=-0.0 size=N/A time=00:00:21.89 bitrate=N/A speed=14.1x    frame=  738 fps=357 q=-0.0 size=N/A time=00:00:30.78 bitrate=N/A speed=14.9x    frame=  939 fps=365 q=-0.0 size=N/A time=00:00:39.16 bitrate=N/A speed=15.2x    frame= 1140 fps=368 q=-0.0 size=N/A time=00:00:47.54 bitrate=N/A speed=15.4x    frame= 1313 fps=363 q=-0.0 size=N/A time=00:00:54.76 bitrate=N/A speed=15.1x    frame= 1516 fps=368 q=-0.0 size=N/A time=00:01:03.22 bitrate=N/A speed=15.3x    frame= 1741 fps=375 q=-0.0 size=N/A time=00:01:12.61 bitrate=N/A speed=15.6x    frame= 1903 fps=368 q=-0.0 size=N/A time=00:01:19.37 bitrate=N/A speed=15.4x    frame= 2109 fps=372 q=-0.0 size=N/A time=00:01:27.96 bitrate=N/A speed=15.5x    frame= 2382 fps=385 q=-0.0 size=N/A time=00:01:39.34 bitrate=N/A speed=  16x    frame= 2659 fps=396 q=-0.0 size=N/A time=00:01:50.90 bitrate=N/A speed=16.5x    frame= 2919 fps=404 q=-0.0 size=N/A time=00:02:01.74 bitrate=N/A speed=16.9x    frame= 3173 fps=410 q=-0.0 size=N/A time=00:02:12.34 bitrate=N/A speed=17.1x    frame= 3409 fps=414 q=-0.0 size=N/A time=00:02:22.18 bitrate=N/A speed=17.2x    frame= 3679 fps=420 q=-0.0 size=N/A time=00:02:33.44 bitrate=N/A speed=17.5x    frame= 3903 fps=420 q=-0.0 size=N/A time=00:02:42.78 bitrate=N/A speed=17.5x    frame= 4118 fps=420 q=-0.0 size=N/A time=00:02:51.75 bitrate=N/A speed=17.5x    frame= 4364 fps=423 q=-0.0 size=N/A time=00:03:02.01 bitrate=N/A speed=17.6x    frame= 4597 fps=425 q=-0.0 size=N/A time=00:03:11.73 bitrate=N/A speed=17.7x    frame= 4841 fps=427 q=-0.0 size=N/A time=00:03:21.91 bitrate=N/A speed=17.8x    frame= 5077 fps=428 q=-0.0 size=N/A time=00:03:31.75 bitrate=N/A speed=17.8x    frame= 5329 fps=431 q=-0.0 size=N/A time=00:03:42.26 bitrate=N/A speed=  18x    frame= 5582 fps=433 q=-0.0 size=N/A time=00:03:52.81 bitrate=N/A speed=  18x    frame= 5834 fps=435 q=-0.0 size=N/A time=00:04:03.32 bitrate=N/A speed=18.2x    frame= 6084 fps=437 q=-0.0 size=N/A time=00:04:13.75 bitrate=N/A speed=18.2x    frame= 6341 fps=439 q=-0.0 size=N/A time=00:04:24.47 bitrate=N/A speed=18.3x    frame= 6573 fps=439 q=-0.0 size=N/A time=00:04:34.14 bitrate=N/A speed=18.3x    frame= 6752 fps=436 q=-0.0 size=N/A time=00:04:41.61 bitrate=N/A speed=18.2x    frame= 6952 fps=435 q=-0.0 size=N/A time=00:04:49.95 bitrate=N/A speed=18.1x    frame= 7182 fps=435 q=-0.0 size=N/A time=00:04:59.54 bitrate=N/A speed=18.2x    frame= 7392 fps=434 q=-0.0 size=N/A time=00:05:08.30 bitrate=N/A speed=18.1x    frame= 7572 fps=432 q=-0.0 size=N/A time=00:05:15.81 bitrate=N/A speed=  18x    frame= 7786 fps=431 q=-0.0 size=N/A time=00:05:24.74 bitrate=N/A speed=  18x    frame= 7979 fps=430 q=-0.0 size=N/A time=00:05:32.79 bitrate=N/A speed=17.9x    frame= 8122 fps=425 q=-0.0 size=N/A time=00:05:38.75 bitrate=N/A speed=17.7x    frame= 8297 fps=423 q=-0.0 size=N/A time=00:05:46.05 bitrate=N/A speed=17.6x    frame= 8452 fps=420 q=-0.0 size=N/A time=00:05:52.51 bitrate=N/A speed=17.5x    frame= 8627 fps=418 q=-0.0 size=N/A time=00:05:59.81 bitrate=N/A speed=17.4x    frame= 8828 fps=417 q=-0.0 size=N/A time=00:06:08.20 bitrate=N/A speed=17.4x    frame= 9082 fps=419 q=-0.0 size=N/A time=00:06:18.79 bitrate=N/A speed=17.5x    frame= 9326 fps=420 q=-0.0 size=N/A time=00:06:28.97 bitrate=N/A speed=17.5x    frame= 9551 fps=420 q=-0.0 size=N/A time=00:06:38.35 bitrate=N/A speed=17.5x    frame= 9792 fps=421 q=-0.0 size=N/A time=00:06:48.40 bitrate=N/A speed=17.6x    frame=10054 fps=423 q=-0.0 size=N/A time=00:06:59.33 bitrate=N/A speed=17.7x    frame=10298 fps=424 q=-0.0 size=N/A time=00:07:09.51 bitrate=N/A speed=17.7x    frame=10539 fps=425 q=-0.0 size=N/A time=00:07:19.56 bitrate=N/A speed=17.7x    frame=10787 fps=426 q=-0.0 size=N/A time=00:07:29.90 bitrate=N/A speed=17.8x    frame=11045 fps=428 q=-0.0 size=N/A time=00:07:40.66 bitrate=N/A speed=17.8x    frame=11308 fps=429 q=-0.0 size=N/A time=00:07:51.63 bitrate=N/A speed=17.9x    frame=11559 fps=430 q=-0.0 size=N/A time=00:08:02.10 bitrate=N/A speed=  18x    frame=11783 fps=431 q=-0.0 size=N/A time=00:08:11.44 bitrate=N/A speed=  18x    frame=11981 fps=430 q=-0.0 size=N/A time=00:08:19.70 bitrate=N/A speed=17.9x    frame=12220 fps=430 q=-0.0 size=N/A time=00:08:29.67 bitrate=N/A speed=  18x    frame=12466 fps=431 q=-0.0 size=N/A time=00:08:39.93 bitrate=N/A speed=  18x    frame=12739 fps=433 q=-0.0 size=N/A time=00:08:51.32 bitrate=N/A speed=18.1x    frame=13006 fps=434 q=-0.0 size=N/A time=00:09:02.45 bitrate=N/A speed=18.1x    frame=13251 fps=435 q=-0.0 size=N/A time=00:09:12.67 bitrate=N/A speed=18.1x    frame=13480 fps=435 q=-0.0 size=N/A time=00:09:22.22 bitrate=N/A speed=18.2x    frame=13708 fps=435 q=-0.0 size=N/A time=00:09:31.73 bitrate=N/A speed=18.2x    frame=13925 fps=435 q=-0.0 size=N/A time=00:09:40.78 bitrate=N/A speed=18.1x    frame=14181 fps=436 q=-0.0 size=N/A time=00:09:51.46 bitrate=N/A speed=18.2x    frame=14384 fps=435 q=-0.0 size=N/A time=00:09:59.93 bitrate=N/A speed=18.2x    frame=14544 fps=434 q=-0.0 size=N/A time=00:10:06.60 bitrate=N/A speed=18.1x    frame=14741 fps=433 q=-0.0 size=N/A time=00:10:14.82 bitrate=N/A speed=  18x    frame=14977 fps=433 q=-0.0 size=N/A time=00:10:24.66 bitrate=N/A speed=18.1x    frame=15218 fps=434 q=-0.0 size=N/A time=00:10:34.71 bitrate=N/A speed=18.1x    frame=15437 fps=433 q=-0.0 size=N/A time=00:10:43.85 bitrate=N/A speed=18.1x    frame=15637 fps=433 q=-0.0 size=N/A time=00:10:52.19 bitrate=N/A speed=18.1x    frame=15883 fps=433 q=-0.0 size=N/A time=00:11:02.45 bitrate=N/A speed=18.1x    frame=16130 fps=434 q=-0.0 size=N/A time=00:11:12.75 bitrate=N/A speed=18.1x    frame=16382 fps=435 q=-0.0 size=N/A time=00:11:23.26 bitrate=N/A speed=18.1x    frame=16652 fps=436 q=-0.0 size=N/A time=00:11:34.52 bitrate=N/A speed=18.2x    frame=16920 fps=437 q=-0.0 size=N/A time=00:11:45.70 bitrate=N/A speed=18.2x    frame=17162 fps=438 q=-0.0 size=N/A time=00:11:55.79 bitrate=N/A speed=18.2x    frame=17394 fps=438 q=-0.0 size=N/A time=00:12:05.47 bitrate=N/A speed=18.3x    frame=17646 fps=438 q=-0.0 size=N/A time=00:12:15.98 bitrate=N/A speed=18.3x    frame=17841 fps=438 q=-0.0 size=N/A time=00:12:24.11 bitrate=N/A speed=18.3x    frame=18034 fps=437 q=-0.0 size=N/A time=00:12:32.16 bitrate=N/A speed=18.2x    frame=18260 fps=437 q=-0.0 size=N/A time=00:12:41.59 bitrate=N/A speed=18.2x    frame=18353 fps=434 q=-0.0 size=N/A time=00:12:45.47 bitrate=N/A speed=18.1x    frame=18558 fps=433 q=-0.0 size=N/A time=00:12:54.02 bitrate=N/A speed=18.1x    frame=18813 fps=434 q=-0.0 size=N/A time=00:13:04.65 bitrate=N/A speed=18.1x    frame=19058 fps=435 q=-0.0 size=N/A time=00:13:14.87 bitrate=N/A speed=18.1x    frame=19250 fps=434 q=-0.0 size=N/A time=00:13:22.88 bitrate=N/A speed=18.1x    frame=19476 fps=434 q=-0.0 size=N/A time=00:13:32.31 bitrate=N/A speed=18.1x    frame=19712 fps=434 q=-0.0 size=N/A time=00:13:42.15 bitrate=N/A speed=18.1x    frame=19918 fps=434 q=-0.0 size=N/A time=00:13:50.74 bitrate=N/A speed=18.1x    frame=20159 fps=434 q=-0.0 size=N/A time=00:14:00.79 bitrate=N/A speed=18.1x    frame=20386 fps=434 q=-0.0 size=N/A time=00:14:10.26 bitrate=N/A speed=18.1x    frame=20654 fps=435 q=-0.0 size=N/A time=00:14:21.44 bitrate=N/A speed=18.1x    frame=20920 fps=436 q=-0.0 size=N/A time=00:14:32.53 bitrate=N/A speed=18.2x    frame=21152 fps=436 q=-0.0 size=N/A time=00:14:42.21 bitrate=N/A speed=18.2x    frame=21418 fps=437 q=-0.0 size=N/A time=00:14:53.30 bitrate=N/A speed=18.2x    frame=21645 fps=437 q=-0.0 size=N/A time=00:15:02.77 bitrate=N/A speed=18.2x    frame=21910 fps=438 q=-0.0 size=N/A time=00:15:13.82 bitrate=N/A speed=18.3x    frame=22154 fps=438 q=-0.0 size=N/A time=00:15:24.00 bitrate=N/A speed=18.3x    frame=22417 fps=439 q=-0.0 size=N/A time=00:15:34.97 bitrate=N/A speed=18.3x    frame=22669 fps=439 q=-0.0 size=N/A time=00:15:45.48 bitrate=N/A speed=18.3x    frame=22921 fps=440 q=-0.0 size=N/A time=00:15:55.99 bitrate=N/A speed=18.3x    frame=23171 fps=440 q=-0.0 size=N/A time=00:16:06.42 bitrate=N/A speed=18.4x    frame=23432 fps=441 q=-0.0 size=N/A time=00:16:17.30 bitrate=N/A speed=18.4x    frame=23640 fps=441 q=-0.0 size=N/A time=00:16:25.98 bitrate=N/A speed=18.4x    frame=23853 fps=440 q=-0.0 size=N/A time=00:16:34.86 bitrate=N/A speed=18.4x    frame=24111 fps=441 q=-0.0 size=N/A time=00:16:45.62 bitrate=N/A speed=18.4x    frame=24339 fps=441 q=-0.0 size=N/A time=00:16:55.13 bitrate=N/A speed=18.4x    frame=24589 fps=441 q=-0.0 size=N/A time=00:17:05.56 bitrate=N/A speed=18.4x    frame=24822 fps=441 q=-0.0 size=N/A time=00:17:15.28 bitrate=N/A speed=18.4x    frame=25054 fps=441 q=-0.0 size=N/A time=00:17:24.96 bitrate=N/A speed=18.4x    frame=25314 fps=442 q=-0.0 size=N/A time=00:17:35.80 bitrate=N/A speed=18.4x    frame=25567 fps=442 q=-0.0 size=N/A time=00:17:46.35 bitrate=N/A speed=18.4x    frame=25738 fps=441 q=-0.0 size=N/A time=00:17:53.48 bitrate=N/A speed=18.4x    frame=25985 fps=442 q=-0.0 size=N/A time=00:18:03.79 bitrate=N/A speed=18.4x    frame=26165 fps=441 q=-0.0 size=N/A time=00:18:11.29 bitrate=N/A speed=18.4x    frame=26366 fps=440 q=-0.0 size=N/A time=00:18:19.68 bitrate=N/A speed=18.4x    frame=26617 fps=441 q=-0.0 size=N/A time=00:18:30.15 bitrate=N/A speed=18.4x    frame=26828 fps=441 q=-0.0 size=N/A time=00:18:38.95 bitrate=N/A speed=18.4x    frame=27046 fps=440 q=-0.0 size=N/A time=00:18:48.04 bitrate=N/A speed=18.4x    frame=27324 fps=441 q=-0.0 size=N/A time=00:18:59.63 bitrate=N/A speed=18.4x    frame=27581 fps=442 q=-0.0 size=N/A time=00:19:10.35 bitrate=N/A speed=18.4x    frame=27841 fps=442 q=-0.0 size=N/A time=00:19:21.20 bitrate=N/A speed=18.4x    frame=28015 fps=441 q=-0.0 size=N/A time=00:19:28.45 bitrate=N/A speed=18.4x    frame=28211 fps=441 q=-0.0 size=N/A time=00:19:36.63 bitrate=N/A speed=18.4x    frame=28480 fps=442 q=-0.0 size=N/A time=00:19:47.85 bitrate=N/A speed=18.4x    frame=28740 fps=442 q=-0.0 size=N/A time=00:19:58.69 bitrate=N/A speed=18.4x    frame=28983 fps=442 q=-0.0 size=N/A time=00:20:08.83 bitrate=N/A speed=18.4x    frame=29215 fps=442 q=-0.0 size=N/A time=00:20:18.50 bitrate=N/A speed=18.4x    frame=29428 fps=442 q=-0.0 size=N/A time=00:20:27.39 bitrate=N/A speed=18.4x    frame=29640 fps=442 q=-0.0 size=N/A time=00:20:36.23 bitrate=N/A speed=18.4x    frame=29887 fps=442 q=-0.0 size=N/A time=00:20:46.53 bitrate=N/A speed=18.4x    frame=30130 fps=442 q=-0.0 size=N/A time=00:20:56.67 bitrate=N/A speed=18.5x    frame=30328 fps=442 q=-0.0 size=N/A time=00:21:04.93 bitrate=N/A speed=18.4x    frame=30544 fps=442 q=-0.0 size=N/A time=00:21:13.93 bitrate=N/A speed=18.4x    frame=30816 fps=442 q=-0.0 size=N/A time=00:21:25.28 bitrate=N/A speed=18.5x    frame=31066 fps=443 q=-0.0 size=N/A time=00:21:35.71 bitrate=N/A speed=18.5x    frame=31314 fps=443 q=-0.0 size=N/A time=00:21:46.05 bitrate=N/A speed=18.5x    frame=31552 fps=443 q=-0.0 size=N/A time=00:21:55.98 bitrate=N/A speed=18.5x    frame=31795 fps=443 q=-0.0 size=N/A time=00:22:06.11 bitrate=N/A speed=18.5x    frame=32005 fps=443 q=-0.0 size=N/A time=00:22:14.87 bitrate=N/A speed=18.5x    frame=32254 fps=443 q=-0.0 size=N/A time=00:22:25.26 bitrate=N/A speed=18.5x    frame=32465 fps=443 q=-0.0 size=N/A time=00:22:34.06 bitrate=N/A speed=18.5x    frame=32695 fps=443 q=-0.0 size=N/A time=00:22:43.65 bitrate=N/A speed=18.5x    frame=32948 fps=443 q=-0.0 size=N/A time=00:22:54.20 bitrate=N/A speed=18.5x    frame=33199 fps=444 q=-0.0 size=N/A time=00:23:04.67 bitrate=N/A speed=18.5x    frame=33404 fps=443 q=-0.0 size=N/A time=00:23:13.22 bitrate=N/A speed=18.5x    frame=33624 fps=443 q=-0.0 size=N/A time=00:23:22.40 bitrate=N/A speed=18.5x    frame=33871 fps=444 q=-0.0 size=N/A time=00:23:32.70 bitrate=N/A speed=18.5x    frame=34112 fps=444 q=-0.0 size=N/A time=00:23:42.75 bitrate=N/A speed=18.5x    [Parsed_psnr_10 @ 000002505864bec0] PSNR y:48.120364 u:49.331850 v:49.296856 average:48.483061 min:40.188865 max:inf
[out#0/null @ 00000250587a5e00] video:14697KiB audio:267508KiB subtitle:0KiB other streams:0KiB global headers:0KiB muxing overhead: unknown
frame=34204 fps=444 q=-0.0 Lsize=N/A time=00:23:46.59 bitrate=N/A speed=18.5x    
